<svg xmlns="http://www.w3.org/2000/svg" width="47.999" height="47.984" viewBox="0 0 47.999 47.984">
  <g>
    <circle cx="40.016" cy="40.001" r="7.983" fill="#525c6b"/>
    <circle cx="40.016" cy="40.001" r="4.124" fill="#e2e2e2"/>
    <polygon points="10.625 14.861 14.609 29.36 28.118 31.906 47.999 14.861 10.625 14.861" fill="#59c5ef"/>
    <path d="M26.344,1.03a2.167,2.167,0,0,0-3.689,0L14.144,14.861H34.856Z" fill="#e49a61"/>
    <path d="M36,4.574a2.165,2.165,0,0,0-3.688,0L25.981,14.861H42.332Z" fill="#f1bb6b"/>
    <path d="M17.219,29.852l-.621,8.73a2.592,2.592,0,0,0,4.9,1.348l4.227-8.408Z" fill="#2ba0bf"/>
    <path d="M41.206,38.254a2.107,2.107,0,0,0-2.031-.187L28.751,30.976a1.113,1.113,0,0,0-.425-.176L15.508,28.384l-3.8-13.821a1.067,1.067,0,0,0-.077-.2l-.235-.475A19.605,19.605,0,0,0,.8,4.251L0,6.352a17.371,17.371,0,0,1,9.384,8.534l.187.378,3.955,14.394a1.122,1.122,0,0,0,.876.807l13.278,2.5,10.23,6.961a2.111,2.111,0,1,0,3.3-1.674Z" fill="#7a8e9b"/>
  </g>
</svg>
