<svg xmlns="http://www.w3.org/2000/svg" viewBox="0 0 64 64"><g id="_15-paint" data-name="15-paint"><path d="M62.41,51.59A1.955,1.955,0,0,1,63,53a2.006,2.006,0,0,1-2,2H3a1.955,1.955,0,0,1-1.41-.59A1.955,1.955,0,0,1,1,53a2.006,2.006,0,0,1,2-2H61A1.955,1.955,0,0,1,62.41,51.59Z" style="fill:#966857"/><path d="M3,53H61a1.987,1.987,0,0,1,1.721,1A2,2,0,0,0,61,51H3a2.006,2.006,0,0,0-2,2,1.963,1.963,0,0,0,.279,1A2,2,0,0,1,3,53Z" style="fill:#966857"/><polygon points="56 21.24 32 8 8 21.24 3 24 3 19 11 14.59 19 10.17 32 3 61 19 61 24 56 21.24" style="fill:#ff936b"/><polygon points="32 5 8 18.24 3 21 3 24 8 21.24 32 8 56 21.24 61 24 61 21 56 18.24 32 5" style="fill:#ff7045"/><path d="M56,21.24V51H26V25H12V51H8V21.24L32,8ZM52,35V27a2.006,2.006,0,0,0-2-2H32a2.006,2.006,0,0,0-2,2v8a2.006,2.006,0,0,0,2,2H50A2.006,2.006,0,0,0,52,35Z" style="fill:#f7f7f7"/><polygon points="32 8 8 21.24 8 25.24 32 12 56 25.24 56 21.24 32 8" style="fill:#cfcfcf"/><path d="M52,31v4a2.006,2.006,0,0,1-2,2H43V31Z" style="fill:#a3d4ff"/><path d="M52,27v4H43V25h7A2.006,2.006,0,0,1,52,27Z" style="fill:#65b1fc"/><polygon points="43 31 43 37 39 37 39 31 39 25 43 25 43 31" style="fill:#b2876d"/><polygon points="43 31 43 37 41 37 41 31 41 25 43 25 43 31" style="fill:#966857"/><path d="M39,31v6H32a2.006,2.006,0,0,1-2-2V31Z" style="fill:#65b1fc"/><path d="M39,25v6H30V27a2.006,2.006,0,0,1,2-2Z" style="fill:#a3d4ff"/><rect x="12" y="25" width="14" height="26" style="fill:#f2d1a5"/><path d="M12,25v3h7a4,4,0,0,1,4,4V51h3V25Z" style="fill:#f2bb88"/><polygon points="20 1 20 5 19 5 11 5 10 5 10 1 20 1" style="fill:#ff936b"/><polygon points="20 3 20 5 19 5 11 5 10 5 10 3 20 3" style="fill:#ff7045"/><polygon points="19 5 19 10.17 11 14.59 11 5 19 5" style="fill:#b2876d"/><rect x="11" y="5" width="8" height="3" style="fill:#966857"/><path d="M46,51H44V49a3,3,0,0,1,3-3H61a1,1,0,0,0,1-1V41a1,1,0,0,0-1-1H59V38h2a3,3,0,0,1,3,3v4a3,3,0,0,1-3,3H47a1,1,0,0,0-1,1Z" style="fill:#9c9c9c"/><rect x="42" y="51" width="6" height="4" style="fill:#b4d241"/><path d="M48,55v5a3,3,0,0,1-6,0V55Z" style="fill:#d2eb5a"/><path d="M52,31v4H34V29a2.006,2.006,0,0,1,2-2h2a2.006,2.006,0,0,0,2-2V22a3,3,0,0,1,6,0v7h4A2.006,2.006,0,0,1,52,31Z" style="fill:#d2eb5a"/><path d="M36,31h2a2.006,2.006,0,0,0,2-2V26a3,3,0,0,1,6,0V22a3,3,0,0,0-6,0v3a2.006,2.006,0,0,1-2,2H36a2.006,2.006,0,0,0-2,2v4A2.006,2.006,0,0,1,36,31Z" style="fill:#e7fc88"/><path d="M50,29H46v4h4a2.006,2.006,0,0,1,2,2V31A2.006,2.006,0,0,0,50,29Z" style="fill:#e7fc88"/><path d="M59,37v4a2.006,2.006,0,0,1-2,2H33a2.006,2.006,0,0,1-2-2V37a2.006,2.006,0,0,1,2-2H57A2.006,2.006,0,0,1,59,37Z" style="fill:#f2d1a5"/><path d="M57,39H33a2.006,2.006,0,0,1-2-2v4a2.006,2.006,0,0,0,2,2H57a2.006,2.006,0,0,0,2-2V37A2.006,2.006,0,0,1,57,39Z" style="fill:#f2bb88"/><path d="M61,50H51v2H61a1,1,0,0,1,0,2H51v2H61a3,3,0,0,0,0-6Z"/><path d="M27,25a1,1,0,0,0-1-1H12a1,1,0,0,0-1,1V50H9V21.832L32,9.142l23,12.69V32h2V22.935l3.517,1.94A1,1,0,0,0,62,24V19a1,1,0,0,0-.517-.875l-29-16a.994.994,0,0,0-.966,0L20,8.479V6a1,1,0,0,0,1-1V1a1,1,0,0,0-1-1H10A1,1,0,0,0,9,1V5a1,1,0,0,0,1,1v8L2.517,18.125A1,1,0,0,0,2,19v5a1,1,0,0,0,1.483.875L7,22.935V50H3a3,3,0,0,0,0,6H39V54H3a1,1,0,0,1,0-2H39V50H27ZM11,2h8V4H11Zm1,4h6V9.582l-6,3.311ZM4,19.59,32,4.142,60,19.59v2.716L32.483,7.125a1,1,0,0,0-.966,0L4,22.306ZM13,50V26H25V50Z"/><path d="M61,38H60V37a3,3,0,0,0-3-3H53V31a3,3,0,0,0-3-3H47V22a4,4,0,0,0-8,0v3a1,1,0,0,1-1,1H36a3,3,0,0,0-3,3v5a3,3,0,0,0-3,3v4a3,3,0,0,0,3,3H57a3,3,0,0,0,3-3V40h1a1,1,0,0,1,1,1v4a1,1,0,0,1-1,1H47a3,3,0,0,0-3,3v1H42a1,1,0,0,0-1,1v9a4,4,0,0,0,8,0V51a1,1,0,0,0-1-1H46V49a1,1,0,0,1,1-1H61a3,3,0,0,0,3-3V41A3,3,0,0,0,61,38ZM35,29a1,1,0,0,1,1-1h2a3,3,0,0,0,3-3V22a2,2,0,0,1,4,0v7a1,1,0,0,0,1,1h4a1,1,0,0,1,1,1v3H35ZM58,41a1,1,0,0,1-1,1H33a1,1,0,0,1-1-1V37a1,1,0,0,1,1-1H57a1,1,0,0,1,1,1ZM45,62a2,2,0,0,1-2-2V56h4v4A2,2,0,0,1,45,62Zm2-8H43V52h4Z"/></g></svg>