<?xml version="1.0" encoding="UTF-8"?>
<!DOCTYPE svg PUBLIC "-//W3C//DTD SVG 1.1//EN" "http://www.w3.org/Graphics/SVG/1.1/DTD/svg11.dtd">
<!-- Creator: CorelDRAW -->
<svg xmlns="http://www.w3.org/2000/svg" xml:space="preserve" width="6.82666in" height="6.82666in" style="shape-rendering:geometricPrecision; text-rendering:geometricPrecision; image-rendering:optimizeQuality; fill-rule:evenodd; clip-rule:evenodd"
viewBox="0 0 6.82666 6.82666"
 xmlns:xlink="http://www.w3.org/1999/xlink">
 <defs>
  <style type="text/css">
   <![CDATA[
    .fil2 {fill:none}
    .fil7 {fill:#5F5F5F}
    .fil5 {fill:#717171}
    .fil6 {fill:#7E7E7E}
    .fil0 {fill:#202020;fill-rule:nonzero}
    .fil4 {fill:#727272;fill-rule:nonzero}
    .fil1 {fill:gray;fill-rule:nonzero}
    .fil3 {fill:#919191;fill-rule:nonzero}
   ]]>
  </style>
 </defs>
 <g id="Layer_x0020_1">
  <metadata id="CorelCorpID_0Corel-Layer"/>
  <path class="fil0" d="M2.45474 2.71508c0.00323228,0.0103976 0.00574803,0.0185354 0.0023189,0.00711024 -0.000716535,-0.0023937 -0.00149213,-0.00476378 -0.0023189,-0.00711024z"/>
  <path class="fil1" d="M5.9212 4.64905l0.00311024 -0.00747638c0.023315,-0.0607913 0.0273976,-0.12611 0.0133898,-0.187154 -0.0142441,-0.0620591 -0.0472953,-0.119618 -0.0978976,-0.163244 -0.0827323,-0.0713228 -0.188945,-0.0735472 -0.29935,-0.0758504 -0.037252,-0.000779528 -0.0749055,-0.00156693 -0.107846,-0.00394488 -0.0463543,-0.00334252 -0.105335,-0.017748 -0.167488,-0.0410039 -0.0953071,-0.0356654 -0.201154,-0.0932402 -0.281728,-0.164244 -0.0912992,-0.0804528 -0.153402,-0.179823 -0.145394,-0.290906 0.00177165,-0.0246102 0.00720472,-0.0496969 0.0167402,-0.0751811 0.0428543,-0.114272 0.152114,-0.087185 0.229799,-0.0679291 0.00985827,0.00244488 0.0186693,0.00462992 0.0240276,0.00541732l-7.87402e-006 4.72441e-005c0.0317283,0.00461024 0.0640591,0.00719685 0.0947992,0.00520472 0.027437,-0.00178346 0.0539213,-0.00729134 0.0777362,-0.0185906 0.0303543,-0.0143898 0.0535787,-0.0390984 0.0669291,-0.0683937 0.0132205,-0.0290118 0.0166102,-0.0625709 0.00747638,-0.0950591 -0.0391299,-0.13924 -0.180783,-0.112882 -0.325622,-0.0859331 -0.146752,0.0273071 -0.295807,0.0550394 -0.417594,-0.0269606 -0.128634,-0.0865945 -0.128476,-0.181252 -0.0663228,-0.273591 0.0558819,-0.0830118 0.172157,-0.15152 0.261283,-0.204031 0.0334173,-0.019689 0.0622598,-0.0366811 0.0778425,-0.0489252l0.000334646 0c0.0150984,-0.0118425 0.0293701,-0.0250787 0.042748,-0.0395039 0.0583976,-0.0629646 0.0900315,-0.142193 0.0936969,-0.222587 0.00367323,-0.0806181 -0.0205669,-0.162512 -0.0739213,-0.230547 -0.0113268,-0.0144409 -0.0244961,-0.0287087 -0.0395315,-0.0426535 -0.0328543,-0.0304724 -0.0667047,-0.0504094 -0.100343,-0.0613543 -0.0470079,-0.0152953 -0.0950433,-0.0131417 -0.14011,0.00211811 -0.0482835,0.0163465 -0.0936654,0.0474961 -0.131807,0.088626 -0.0389567,0.042 -0.0699213,0.0940433 -0.0885394,0.151256 -0.0197244,0.0605512 -0.0309567,0.123437 -0.0360236,0.187386 -0.00517323,0.0652677 -0.00387402,0.131669 0.00142913,0.197894 0.00240157,0.0298543 0.00816929,0.109972 -0.0030748,0.179201 -0.0194173,0.119539 -0.0752126,0.207323 -0.213854,0.136823 -0.149618,-0.0762244 -0.141787,-0.198957 -0.13402,-0.320921 0.00220472,-0.0345709 0.00440157,-0.069063 0.000716535,-0.095815 -0.00433465,-0.0315472 -0.0174685,-0.0586614 -0.0370354,-0.0796654 -0.0204134,-0.0219094 -0.0483858,-0.0376693 -0.0812835,-0.0454291 -0.0458465,-0.0107913 -0.0840906,-0.00905906 -0.114488,0.00177559 -0.0300276,0.0107047 -0.0534567,0.0311772 -0.0694252,0.0573583 -0.0176535,0.0289449 -0.0267756,0.0649213 -0.0264803,0.103327 0.000358268,0.0470276 0.0150591,0.0971693 0.0456614,0.14272l0.000153543 -0.000106299c0.0161614,0.0239449 0.0422874,0.063315 0.0552717,0.107425 0.0210039,0.071374 0.0114488,0.141154 -0.0788071,0.179283 -0.0904921,0.0382283 -0.139902,-0.0198819 -0.169232,-0.0893189 -0.00910236,-0.0215472 -0.0147992,-0.0409528 -0.0190354,-0.0553858l0 -0.000334646c-0.000464567,-0.00159449 -0.000893701,-0.00304724 -0.0030748,-0.00970472l-0.00715748 -0.0220039c-0.0301811,-0.0929764 -0.0603386,-0.18587 -0.121173,-0.252457 -0.00430709,-0.00470866 -0.00996457,-0.0103425 -0.0169094,-0.0168504 -0.0645591,-0.0604961 -0.146909,-0.0820472 -0.229126,-0.0741929 -0.0871142,0.0083189 -0.173976,0.0485866 -0.241642,0.110461 -0.00690551,0.00631102 -0.0147244,0.0141181 -0.0234331,0.0234134 -0.0339055,0.0361417 -0.0578937,0.080685 -0.0675157,0.127299 -0.00854331,0.0414134 -0.00555512,0.0847126 0.0123189,0.12502l-0.000279528 0.000122047c0.0188976,0.0424882 0.048874,0.0737598 0.0848898,0.0986024 0.0404252,0.0278858 0.0903268,0.0489803 0.141937,0.0683622 0.0591024,0.0222165 0.126563,0.050311 0.187165,0.0914685 0.0677087,0.0459764 0.124256,0.106524 0.149193,0.189634 0.0333189,0.11098 -0.0344173,0.164886 -0.123972,0.19037 -0.0556969,0.0158465 -0.119335,0.0172047 -0.149972,0.0172047 -0.11639,0 -0.222035,-0.0286969 -0.326264,-0.0570118 -0.14213,-0.0386102 -0.281224,-0.0763937 -0.418429,-0.019 -0.012878,0.00538583 -0.024122,0.0105512 -0.0337165,0.0154685 -0.0903268,0.046311 -0.169374,0.121681 -0.215228,0.210177 -0.0430591,0.0831063 -0.0556417,0.177929 -0.0174213,0.26928 0.00379134,0.00906299 0.00724409,0.0166496 0.0103346,0.0226772 0.0247638,0.0483661 0.0639291,0.0929016 0.111079,0.127039 0.0440512,0.0318937 0.0942402,0.0537559 0.144882,0.0598189 0.0554449,0.00664173 0.104732,-0.00429134 0.15085,-0.0248937 0.0510591,-0.0228071 0.101598,-0.0588268 0.152465,-0.0972165 0.0212677,-0.0160551 0.0934488,-0.0610236 0.16628,-0.0900157 0.0405827,-0.0161535 0.0830276,-0.0280157 0.121469,-0.0293583 0.0594094,-0.00207087 0.109311,0.0178465 0.138685,0.0726693 0.00767323,0.0143268 0.0130945,0.0305079 0.0159094,0.0487087 0.0155079,0.0998465 -0.0701614,0.194343 -0.130165,0.260535 -0.0087126,0.00961417 -0.0165551,0.0182677 -0.0270118,0.0310551 -0.0356378,0.0435315 -0.0672205,0.0879094 -0.0848583,0.133012 -0.0154252,0.0394331 -0.0206102,0.0815709 -0.00825197,0.12772 0.0119646,0.0446575 0.034563,0.0839094 0.0652559,0.114311 0.0295315,0.0292559 0.0669843,0.0505551 0.11,0.0607087 0.0067874,0.00159843 0.0132362,0.00285433 0.0193268,0.00376378 0.0469921,0.00702756 0.0803898,-0.00543307 0.103705,-0.0291654 0.0295787,-0.0301024 0.049311,-0.0785236 0.062063,-0.132626 0.00398425,-0.0168937 0.00722441,-0.0341535 0.00981496,-0.0514764 0.00296457,-0.0197756 0.0074252,-0.0401535 0.0134528,-0.0604331 0.0160079,-0.0538189 0.0432047,-0.105236 0.0834764,-0.142362 0.0462205,-0.0426102 0.106031,-0.0658819 0.18085,-0.0546535 0.012311,0.00184646 0.0249331,0.00465354 0.0378346,0.00848819l-3.14961e-005 9.05512e-005c0.0716102,0.0213504 0.130484,0.0656535 0.175957,0.121091 0.0498386,0.060748 0.0837087,0.135362 0.100201,0.206559 0.018126,0.0787087 0.0335354,0.160047 0.0395118,0.242461 0.00618898,0.0853858 0.00225984,0.171732 -0.0189803,0.257283 -0.0141417,0.0569528 -0.0346142,0.107618 -0.0550354,0.158161 -0.0246693,0.0610472 -0.0492638,0.121917 -0.0566063,0.184972 -0.00436614,0.0374094 -0.00420472,0.0735197 0.000188976,0.10737 0.00893701,0.0687992 0.0351575,0.130476 0.0761654,0.176528 0.0388307,0.0436063 0.0918819,0.0731614 0.156827,0.0807441 0.0255866,0.00298425 0.0526024,0.00285039 0.0808661,-0.000818898 0.00655118,-0.000854331 0.0155236,-0.00239764 0.026811,-0.0046063 0.0994724,-0.0194843 0.172669,-0.0726654 0.217559,-0.14465 0.0467008,-0.0748858 0.0645748,-0.170787 0.0514291,-0.271933l0 -0.000334646c-0.00110236,-0.00847638 -0.00299606,-0.0195709 -0.0056811,-0.0332953 -0.0209567,-0.106858 -0.0819488,-0.200614 -0.143673,-0.295516 -0.0115315,-0.0177205 -0.0231732,-0.0356339 -0.0418976,-0.0654882l-0.000149606 9.44882e-005c-0.00533465,-0.00850787 -0.0161654,-0.025311 -0.0272559,-0.0425236 -0.066378,-0.103 -0.141244,-0.219181 -0.149642,-0.351224 -0.00542126,-0.0842913 0.0365354,-0.14763 0.0981339,-0.193984 0.0697559,-0.0524843 0.167122,-0.080815 0.233583,-0.0906378 0.0992362,-0.014685 0.167335,0.00296063 0.220654,0.0493346l-0.000145669 0.000169291c0.0484764,0.042252 0.0755394,0.102594 0.0994843,0.181181 0.0139528,0.0458425 0.0298583,0.0897402 0.0535512,0.122768l-0.000216535 0.00015748c0.0186654,0.0259488 0.0440315,0.0456535 0.0811102,0.0539134 0.0364606,0.00814961 0.0782126,0.00335433 0.116295,-0.0119528 0.035689,-0.0143425 0.066685,-0.0374449 0.0849764,-0.0670709 0.0180276,-0.0292362 0.0209882,-0.0645984 0.0148898,-0.100677 -0.00912598,-0.0539291 -0.0375984,-0.108469 -0.0696811,-0.151547 -0.0450472,-0.0604764 -0.104929,-0.100051 -0.168421,-0.142012 -0.0225236,-0.0148858 -0.0454685,-0.0300551 -0.0709882,-0.0482953l-0.114807 -0.0820748 0.12615 -0.0633858c0.00591339,-0.0029685 0.00270472,-0.00153937 0.00520866,-0.00273622l-6.29921e-005 -0.000133858c0.0973937,-0.0463622 0.207236,-0.0304213 0.302138,0.0180945 0.0887402,0.0453583 0.166157,0.121169 0.205614,0.199602 0.00143307,0.00283465 0.00257874,0.00516535 0.00345669,0.00700787 0.0158583,0.0333425 0.0305039,0.0701181 0.0451339,0.106831 0.0285512,0.0716693 0.0570394,0.143161 0.105118,0.197839 0.0293701,0.0334173 0.0632756,0.0571417 0.099374,0.0721969 0.0551732,0.0230079 0.116398,0.026874 0.175504,0.014937 0.0606969,-0.0122559 0.119035,-0.0410512 0.16665,-0.0828898 0.0366102,-0.0321732 0.0665709,-0.0722205 0.0858465,-0.118441l1.9685e-005 7.87402e-006 0.000224409 -0.000531496 0.000114173 4.72441e-005 5.51181e-005 -0.000125984 -3.93701e-005 -1.5748e-005 0.00011811 -0.000283465 -0.00011811 -4.72441e-005z"/>
  <g id="_489296784">
   <rect id="_489296400" class="fil2" width="6.82666" height="6.82666"/>
   <rect id="_489296808" class="fil2" x="0.853331" y="0.853331" width="5.12" height="5.12"/>
  </g>
  <path class="fil3" d="M3.16829 2.32533l0.00172835 -0.00415354c0.0129528,-0.0337717 0.0152205,-0.070063 0.00744094,-0.103972 -0.00791732,-0.0344803 -0.0262756,-0.0664567 -0.0543898,-0.0906929 -0.0459646,-0.039626 -0.104969,-0.0408583 -0.166307,-0.0421417 -0.0206969,-0.000429134 -0.0416142,-0.000870079 -0.0599134,-0.00218898 -0.025752,-0.00185827 -0.0585197,-0.00985827 -0.0930472,-0.0227795 -0.0529528,-0.019815 -0.111756,-0.0517992 -0.15652,-0.091248 -0.0507205,-0.0446969 -0.0852244,-0.0999016 -0.0807756,-0.161614 0.000988189,-0.0136732 0.00400394,-0.0276102 0.00930315,-0.0417677 0.0238071,-0.0634843 0.0845079,-0.048437 0.127665,-0.0377402 0.00547638,0.00135827 0.0103701,0.0025748 0.0133504,0.00301181l-3.93701e-006 2.3622e-005c0.017626,0.00256299 0.0355866,0.004 0.0526654,0.0028937 0.0152402,-0.000992126 0.0299567,-0.00405118 0.043189,-0.0103268 0.0168583,-0.00799606 0.0297638,-0.0217244 0.0371811,-0.038 0.00734646,-0.0161142 0.00922835,-0.0347598 0.00415354,-0.052811 -0.0217402,-0.0773543 -0.100437,-0.0627087 -0.180902,-0.0477362 -0.0815276,0.0151693 -0.164339,0.0305748 -0.232,-0.0149803 -0.0714606,-0.0481063 -0.071374,-0.100697 -0.0368465,-0.151996 0.0310472,-0.0461181 0.0956457,-0.0841772 0.145161,-0.11335 0.018563,-0.010937 0.0345866,-0.020378 0.0432441,-0.0271811l0.000185039 0c0.00838976,-0.00657874 0.0163189,-0.0139331 0.023748,-0.0219449 0.0324449,-0.0349843 0.0500197,-0.079 0.0520551,-0.123661 0.00204331,-0.0447874 -0.0114252,-0.0902835 -0.0410669,-0.128083 -0.00629134,-0.00802362 -0.0136063,-0.0159488 -0.0219606,-0.0236969 -0.018252,-0.0169252 -0.0370591,-0.0280039 -0.055748,-0.0340827 -0.0261142,-0.0085 -0.0527992,-0.00730315 -0.0778386,0.00117323 -0.0268228,0.00908268 -0.0520354,0.0263898 -0.0732283,0.0492402 -0.0216378,0.0233307 -0.0388425,0.0522441 -0.049185,0.0840315 -0.0109606,0.0336378 -0.0172008,0.0685748 -0.0200157,0.104102 -0.00287008,0.0362598 -0.00214961,0.0731496 0.000795276,0.109941 0.00133465,0.0165827 0.00453937,0.0610945 -0.00170866,0.0995551 -0.0107874,0.0664134 -0.0417835,0.115181 -0.118807,0.0760118 -0.083122,-0.0423465 -0.0787717,-0.110531 -0.0744567,-0.178287 0.00122441,-0.0192087 0.00244488,-0.0383701 0.000397638,-0.0532323 -0.00240551,-0.0175236 -0.00970472,-0.0325906 -0.0205748,-0.0442559 -0.0113386,-0.0121732 -0.026878,-0.0209291 -0.0451575,-0.0252402 -0.0254685,-0.00599606 -0.0467165,-0.0050315 -0.0636024,0.000988189 -0.016685,0.00594488 -0.0297008,0.0173189 -0.0385709,0.0318622 -0.00981102,0.0160827 -0.014874,0.0360669 -0.0147126,0.0574055 0.000200787,0.026126 0.00836614,0.0539803 0.0253661,0.0792874l8.66142e-005 -5.51181e-005c0.00897638,0.0132992 0.0234921,0.0351732 0.0307087,0.0596772 0.0116654,0.0396535 0.00635827,0.0784213 -0.0437835,0.0996063 -0.0502717,0.0212362 -0.0777244,-0.0110472 -0.0940197,-0.049622 -0.00505512,-0.0119724 -0.00822047,-0.022752 -0.0105709,-0.0307717l0 -0.000185039c-0.000259843,-0.000885827 -0.0005,-0.00169685 -0.0017126,-0.0053937l-0.00397638 -0.0122244c-0.0167677,-0.0516535 -0.0335197,-0.10326 -0.067315,-0.140252 -0.0023937,-0.00261811 -0.00553937,-0.00574803 -0.00939764,-0.0093622 -0.0358661,-0.0336102 -0.0816142,-0.0455827 -0.127291,-0.0412205 -0.0483976,0.00462205 -0.0966535,0.0269961 -0.134248,0.0613661 -0.00383465,0.00350787 -0.00817717,0.00784646 -0.0130157,0.0130118 -0.0188386,0.0200748 -0.0321614,0.0448228 -0.0375079,0.0707205 -0.00474803,0.0230079 -0.00308661,0.047063 0.00684252,0.0694528l-0.000153543 7.08661e-005c0.0104961,0.0236024 0.0271496,0.0409764 0.0471614,0.0547795 0.0224567,0.0154921 0.0501811,0.0272087 0.0788504,0.0379803 0.0328346,0.0123386 0.070315,0.0279488 0.103984,0.050815 0.0376142,0.0255394 0.0690276,0.0591772 0.0828858,0.10535 0.0185079,0.0616575 -0.019122,0.0916024 -0.068878,0.105764 -0.0309409,0.00880315 -0.0662953,0.00955906 -0.083315,0.00955906 -0.0646614,0 -0.123354,-0.0159449 -0.18126,-0.0316772 -0.0789606,-0.0214488 -0.156236,-0.0424409 -0.232461,-0.0105551 -0.00715354,0.00299213 -0.0134016,0.0058622 -0.0187323,0.00859449 -0.0501811,0.0257283 -0.0940945,0.0675984 -0.119571,0.116768 -0.0239213,0.0461693 -0.0309134,0.0988465 -0.00967717,0.149598 0.0021063,0.00503543 0.00402362,0.00924803 0.00574016,0.0125984 0.0137559,0.0268701 0.0355157,0.0516142 0.0617126,0.0705787 0.0244685,0.0177165 0.0523543,0.0298622 0.0804882,0.0332323 0.0308031,0.00368898 0.058185,-0.00238583 0.0838071,-0.0138307 0.0283661,-0.0126693 0.0564409,-0.0326811 0.0847008,-0.0540118 0.011815,-0.00891732 0.0519173,-0.0338976 0.092378,-0.0500079 0.0225472,-0.00897244 0.046126,-0.015563 0.0674843,-0.0163071 0.0330039,-0.00115354 0.0607283,0.00991339 0.0770472,0.0403701 0.00426378,0.00796063 0.00727165,0.0169488 0.00883858,0.0270591 0.00861417,0.0554724 -0.0389803,0.107969 -0.072315,0.144744 -0.00484252,0.00533858 -0.00919685,0.0101496 -0.0150039,0.017252 -0.0198031,0.024185 -0.0373465,0.0488386 -0.0471457,0.0738976 -0.00857087,0.0219055 -0.0114488,0.045315 -0.00458661,0.0709528 0.00664961,0.024811 0.0192047,0.0466181 0.0362559,0.0635079 0.0164055,0.016252 0.0372126,0.0280866 0.0611102,0.0337283 0.00377165,0.000889764 0.00735433,0.00158661 0.0107362,0.00209055 0.0261063,0.00390551 0.0446614,-0.00301969 0.0576142,-0.0162047 0.0164331,-0.0167244 0.0273976,-0.043622 0.0344803,-0.0736811 0.0022126,-0.00938583 0.00401181,-0.0189724 0.00545276,-0.0285945 0.00164567,-0.0109882 0.00412598,-0.022311 0.00747244,-0.0335748 0.0088937,-0.0299016 0.0240039,-0.0584646 0.046378,-0.0790906 0.0256772,-0.0236732 0.0589055,-0.0366024 0.100472,-0.0303661 0.00683858,0.00102756 0.0138504,0.00258661 0.0210197,0.00471654l-1.5748e-005 5.11811e-005c0.0397795,0.0118622 0.0724882,0.0364724 0.097752,0.0672717 0.027689,0.033752 0.0465039,0.0752008 0.0556693,0.114756 0.0100669,0.0437283 0.018626,0.0889134 0.0219488,0.134701 0.00343701,0.047437 0.00125591,0.0954055 -0.0105433,0.142937 -0.00785827,0.0316378 -0.0192323,0.0597874 -0.0305787,0.0878661 -0.0137047,0.0339173 -0.0273701,0.0677323 -0.0314449,0.102764 -0.00242913,0.0207835 -0.00233858,0.0408425 0.000102362,0.0596496 0.00496457,0.0382205 0.0195315,0.0724843 0.042315,0.0980709 0.0215748,0.0242283 0.0510472,0.0406457 0.087126,0.0448583 0.0142165,0.00165748 0.0292244,0.00158268 0.0449252,-0.000456693 0.00364173,-0.000472441 0.00862598,-0.00133071 0.0148976,-0.00255906 0.0552638,-0.0108228 0.0959252,-0.0403661 0.120866,-0.0803583 0.0259409,-0.0416063 0.035874,-0.0948858 0.0285709,-0.151075l0 -0.000185039c-0.000614173,-0.0047126 -0.00166535,-0.010874 -0.00315748,-0.0185 -0.0116417,-0.0593661 -0.0455236,-0.111453 -0.0798189,-0.164173 -0.00640551,-0.00984646 -0.012874,-0.0197992 -0.0232756,-0.0363858l-8.26772e-005 5.11811e-005c-0.00296457,-0.00472441 -0.00898031,-0.0140591 -0.0151417,-0.023622 -0.036878,-0.0572244 -0.0784685,-0.121768 -0.0831339,-0.195126 -0.00301575,-0.0468268 0.0202953,-0.0820157 0.0545157,-0.107768 0.0387559,-0.0291575 0.0928465,-0.0448976 0.129772,-0.0503543 0.0551299,-0.00815748 0.0929646,0.00164567 0.122587,0.0274094l-8.26772e-005 9.05512e-005c0.0269291,0.0234764 0.0419646,0.057 0.0552677,0.100657 0.00775197,0.0254685 0.0165866,0.0498583 0.029752,0.0682047l-0.000122047 8.66142e-005c0.0103701,0.0144173 0.0244646,0.0253661 0.045063,0.0299528 0.0202559,0.00452756 0.0434528,0.00186614 0.0646102,-0.0066378 0.0198268,-0.0079685 0.0370472,-0.0208071 0.0472087,-0.0372638 0.0100157,-0.0162441 0.0116575,-0.0358898 0.00827165,-0.0559291 -0.00507087,-0.0299646 -0.0208898,-0.0602638 -0.0387126,-0.0841969 -0.0250276,-0.0335984 -0.0582953,-0.0555827 -0.0935669,-0.0788937 -0.0125118,-0.00827165 -0.0252598,-0.0166969 -0.039437,-0.0268307l-0.0637835 -0.0455984 0.0700827 -0.0352126c0.00328346,-0.00164961 0.00150394,-0.000858268 0.0028937,-0.00152362l-3.54331e-005 -7.08661e-005c0.0541063,-0.0257559 0.11513,-0.0169016 0.167854,0.0100512 0.0493031,0.0251969 0.092311,0.067315 0.114232,0.11089 0.000795276,0.0015748 0.00143307,0.00287008 0.00192126,0.0038937 0.00880709,0.0185236 0.0169449,0.0389528 0.0250709,0.0593504 0.0158661,0.039815 0.031689,0.0795354 0.0584016,0.109909 0.016315,0.0185669 0.0351535,0.031748 0.0552087,0.0401102 0.0306496,0.0127835 0.0646654,0.0149291 0.0975,0.00829921 0.0337244,-0.00681102 0.0661339,-0.0228071 0.0925866,-0.0460512 0.0203346,-0.017874 0.0369803,-0.040122 0.047689,-0.0657992l1.1811e-005 3.93701e-006 0.000125984 -0.000295276 6.29921e-005 2.75591e-005 3.14961e-005 -7.08661e-005 -2.3622e-005 -7.87402e-006 6.69291e-005 -0.000161417 -6.69291e-005 -2.3622e-005z"/>
  <path class="fil4" d="M4.64646 1.83712l0.00120866 -0.00290157c0.00906299,-0.023626 0.0106496,-0.0490079 0.00520472,-0.0727283 -0.00553543,-0.0241181 -0.018378,-0.0464882 -0.0380433,-0.063437 -0.0321496,-0.0277205 -0.0734252,-0.0285827 -0.116331,-0.0294764 -0.0144764,-0.00030315 -0.0291063,-0.000610236 -0.0419094,-0.00153543 -0.0180118,-0.00129528 -0.0409331,-0.0068937 -0.0650827,-0.0159331 -0.0370394,-0.0138622 -0.0781693,-0.0362323 -0.109484,-0.0638268 -0.0354764,-0.0312638 -0.0596102,-0.069878 -0.0565,-0.113047 0.000692913,-0.00956299 0.00280315,-0.019311 0.00650787,-0.0292165 0.0166535,-0.0444055 0.0591102,-0.033878 0.0892992,-0.0263937 0.00383071,0.000948819 0.00725591,0.00179921 0.00933858,0.00210236l-3.93701e-006 1.9685e-005c0.0123307,0.00179134 0.0248937,0.00279528 0.0368386,0.00202362 0.0106614,-0.000692913 0.0209567,-0.00283465 0.0302087,-0.00722441 0.0117953,-0.00559449 0.0208228,-0.0151969 0.0260118,-0.0265787 0.00513386,-0.0112756 0.00645276,-0.024315 0.00290157,-0.0369409 -0.0152047,-0.0541063 -0.070252,-0.0438661 -0.126535,-0.0333937 -0.0570276,0.0106102 -0.114953,0.0213898 -0.16228,-0.0104764 -0.0499882,-0.0336496 -0.0499252,-0.070437 -0.0257717,-0.106319 0.0217126,-0.0322559 0.0668976,-0.058878 0.101535,-0.0792874 0.0129843,-0.00764961 0.0241929,-0.0142559 0.030248,-0.0190118l0.000129921 0c0.00586614,-0.00460236 0.0114134,-0.00974409 0.0166142,-0.0153504 0.0226929,-0.0244685 0.0349843,-0.0552559 0.0364094,-0.0865 0.00142913,-0.0313268 -0.00799213,-0.0631496 -0.0287244,-0.0895906 -0.00440157,-0.00561024 -0.00951969,-0.0111535 -0.0153622,-0.0165748 -0.0127677,-0.0118386 -0.0259213,-0.0195906 -0.0389961,-0.0238425 -0.0182638,-0.00594488 -0.0369331,-0.0051063 -0.0544449,0.000822835 -0.0187638,0.00635433 -0.0363976,0.0184567 -0.0512205,0.0344409 -0.0151378,0.0163228 -0.0271732,0.0365433 -0.0344094,0.0587795 -0.00766142,0.0235315 -0.0120276,0.0479685 -0.0139961,0.0728189 -0.00201181,0.0253622 -0.00150787,0.0511654 0.000555118,0.0769016 0.000933071,0.0115984 0.00317323,0.0427362 -0.00119685,0.0696378 -0.00754331,0.0464528 -0.0292283,0.0805669 -0.0831024,0.0531693 -0.0581417,-0.029622 -0.0551024,-0.077315 -0.0520827,-0.124709 0.000858268,-0.013437 0.0017126,-0.0268425 0.000279528,-0.0372362 -0.00168504,-0.0122598 -0.0067874,-0.0227953 -0.0143898,-0.0309567 -0.00793307,-0.00851575 -0.0188031,-0.0146417 -0.0315866,-0.0176535 -0.0178189,-0.00419685 -0.0326811,-0.00352362 -0.0444921,0.000688976 -0.0116693,0.00416142 -0.0207756,0.0121142 -0.0269803,0.0222874 -0.00685827,0.011248 -0.0104055,0.0252283 -0.0102913,0.0401535 0.000141732,0.0182756 0.00585433,0.0377598 0.0177441,0.0554606l6.29921e-005 -3.93701e-005c0.00627953,0.00930315 0.0164331,0.0246024 0.0214764,0.0417441 0.00816142,0.0277362 0.00444882,0.0548543 -0.030622,0.0696732 -0.0351654,0.0148543 -0.0543661,-0.00772835 -0.0657638,-0.0347126 -0.00353937,-0.00837402 -0.00575197,-0.0159134 -0.00739764,-0.0215236l0 -0.000129921c-0.000181102,-0.00061811 -0.000350394,-0.0011811 -0.00119685,-0.00377165l-0.00278346 -0.00854724c-0.0117283,-0.0361339 -0.0234449,-0.0722323 -0.0470866,-0.0981063 -0.00167323,-0.00183071 -0.00387008,-0.00401969 -0.00657087,-0.00654724 -0.0250866,-0.0235118 -0.0570906,-0.0318858 -0.0890394,-0.0288346 -0.0338504,0.00323622 -0.0676063,0.0188819 -0.0939016,0.0429252 -0.00268504,0.00245276 -0.00572047,0.00548819 -0.0091063,0.00910236 -0.0131772,0.0140433 -0.0224961,0.0313504 -0.0262362,0.0494685 -0.0033189,0.0160906 -0.00216142,0.0329173 0.0047874,0.0485787l-0.000110236 5.11811e-005c0.00734252,0.0165079 0.0189921,0.0286614 0.0329882,0.038315 0.0157087,0.0108386 0.0351024,0.0190354 0.0551575,0.0265669 0.0229685,0.00863386 0.0491811,0.0195512 0.0727323,0.0355433 0.026311,0.0178661 0.0482874,0.0413976 0.0579803,0.0736929 0.0129449,0.043126 -0.013378,0.0640748 -0.0481772,0.0739803 -0.0216457,0.00615748 -0.046374,0.00668504 -0.0582795,0.00668504 -0.0452323,0 -0.0862835,-0.0111535 -0.126787,-0.0221575 -0.0552323,-0.0150039 -0.109283,-0.029685 -0.162602,-0.00738189 -0.00500394,0.00209449 -0.00937402,0.00410236 -0.0131024,0.00601181 -0.0351024,0.0179961 -0.0658189,0.0472835 -0.0836378,0.0816772 -0.0167362,0.0322953 -0.021626,0.0691417 -0.00677165,0.104642 0.00147244,0.00351969 0.00281496,0.0064685 0.00401575,0.00881102 0.00962205,0.0187953 0.0248425,0.0361024 0.0431654,0.0493701 0.0171181,0.0123937 0.036622,0.0208858 0.0563031,0.0232441 0.0215472,0.00257874 0.0406969,-0.00166929 0.0586181,-0.00967323 0.0198425,-0.0088622 0.0394843,-0.0228622 0.059248,-0.0377795 0.00826772,-0.00624016 0.036315,-0.0237126 0.0646181,-0.0349803 0.0157717,-0.00627953 0.0322638,-0.0108858 0.0472047,-0.0114094 0.0230827,-0.00080315 0.0424764,0.00693701 0.0538937,0.0282402 0.00298031,0.00556693 0.00508661,0.0118543 0.0061811,0.0189291 0.00602756,0.0387992 -0.0272638,0.0755236 -0.0505827,0.101244 -0.00338583,0.00373622 -0.00643307,0.00709843 -0.0104961,0.0120669 -0.0138504,0.0169173 -0.026122,0.0341614 -0.0329764,0.051689 -0.00599606,0.0153268 -0.00800787,0.0317008 -0.00320866,0.0496339 0.00464961,0.0173543 0.0134331,0.0326063 0.0253583,0.0444213 0.0114764,0.0113701 0.0260315,0.0196457 0.042748,0.0235906 0.0026378,0.000622047 0.00514173,0.00111024 0.00750787,0.00146457 0.0182638,0.00273228 0.0312402,-0.00211024 0.0403031,-0.0113346 0.0114921,-0.0116969 0.0191614,-0.0305157 0.0241181,-0.0515394 0.00154724,-0.00656299 0.00280709,-0.0132717 0.00381102,-0.0200039 0.00115354,-0.00768504 0.00288583,-0.0156024 0.00522835,-0.0234843 0.00622047,-0.0209134 0.0167913,-0.0408937 0.0324409,-0.0553228 0.0179606,-0.0165591 0.0412047,-0.0255984 0.0702795,-0.0212362 0.00478346,0.000716535 0.00968898,0.00180709 0.0147008,0.00329528l-1.1811e-005 3.93701e-005c0.0278268,0.00829528 0.0507087,0.0255118 0.068378,0.0470551 0.0193661,0.0236063 0.0325276,0.0526024 0.038937,0.0802677 0.00704724,0.0305866 0.0130315,0.0621929 0.0153543,0.0942205 0.00240551,0.0331811 0.000877953,0.0667362 -0.00737402,0.0999803 -0.00549606,0.0221339 -0.0134528,0.0418228 -0.0213858,0.0614646 -0.00958661,0.0237205 -0.0191457,0.047378 -0.022,0.0718819 -0.00169685,0.0145354 -0.00163386,0.0285669 7.48031e-005,0.0417205 0.00347244,0.0267362 0.0136614,0.0507047 0.0295984,0.0686024 0.0150906,0.0169449 0.0357047,0.0284291 0.0609409,0.031374 0.00994488,0.00116142 0.0204449,0.00111024 0.0314252,-0.000318898 0.00254724,-0.000330709 0.0060315,-0.000929134 0.0104213,-0.0017874 0.0386535,-0.00757087 0.0670984,-0.0282362 0.0845433,-0.0562126 0.0181457,-0.0290984 0.0250945,-0.0663661 0.0199843,-0.105673l0 -0.000129921c-0.000429134,-0.00329528 -0.00116535,-0.0076063 -0.00220866,-0.012937 -0.00814173,-0.0415276 -0.0318425,-0.0779606 -0.0558307,-0.114839 -0.00448031,-0.00688976 -0.00900394,-0.0138465 -0.0162795,-0.0254488l-5.90551e-005 3.54331e-005c-0.0020748,-0.00330709 -0.00628346,-0.00983465 -0.0105906,-0.0165236 -0.0257953,-0.0400276 -0.0548898,-0.0851772 -0.0581535,-0.136488 -0.0021063,-0.0327559 0.0141969,-0.0573701 0.0381339,-0.0753819 0.0271102,-0.0203976 0.0649449,-0.0314055 0.0907717,-0.0352205 0.0385669,-0.00570866 0.0650276,0.00114961 0.085748,0.0191693l-5.51181e-005 6.69291e-005c0.0188346,0.0164173 0.0293543,0.0398661 0.0386575,0.0704055 0.00542126,0.017815 0.0116024,0.034874 0.020811,0.0477087l-8.26772e-005 6.29921e-005c0.00725197,0.0100827 0.0171102,0.0177402 0.0315157,0.0209488 0.0141693,0.00316929 0.0303937,0.00130315 0.0451929,-0.00464567 0.0138701,-0.00557087 0.0259173,-0.0145512 0.0330236,-0.026063 0.00700394,-0.0113622 0.00815748,-0.0251024 0.0057874,-0.039122 -0.00354724,-0.0209567 -0.0146102,-0.0421535 -0.0270787,-0.0588937 -0.0175079,-0.0235 -0.0407756,-0.038878 -0.0654488,-0.055185 -0.00875197,-0.00578346 -0.0176693,-0.0116772 -0.0275866,-0.0187677l-0.0446142 -0.0318937 0.0490236 -0.0246339c0.00229528,-0.00115354 0.00105118,-0.000598425 0.00202362,-0.00106299l-2.75591e-005 -5.11811e-005c0.0378504,-0.0180157 0.0805315,-0.0118228 0.117413,0.0070315 0.0344843,0.017626 0.0645709,0.0470866 0.0799016,0.0775669 0.000559055,0.00110236 0.00100394,0.00200787 0.00134252,0.00272441 0.00616142,0.0129567 0.0118543,0.0272441 0.0175394,0.0415118 0.0110984,0.0278504 0.0221654,0.0556339 0.0408504,0.0768819 0.0114134,0.0129843 0.0245866,0.0222047 0.0386181,0.0280551 0.0214409,0.00894094 0.0452323,0.0104449 0.0682008,0.00580709 0.0235866,-0.00476378 0.0462559,-0.0159528 0.0647598,-0.0322126 0.0142244,-0.0125039 0.0258701,-0.0280669 0.0333583,-0.0460276l1.1811e-005 3.93701e-006 8.26772e-005 -0.000208661 4.72441e-005 1.9685e-005 1.9685e-005 -4.72441e-005 -1.5748e-005 -7.87402e-006 4.72441e-005 -0.000110236 -4.72441e-005 -1.9685e-005z"/>
  <circle class="fil5" cx="4.41711" cy="3.58479" r="0.213335"/>
  <circle class="fil5" cx="3.95213" cy="4.01079" r="0.285589"/>
  <circle class="fil6" cx="2.10014" cy="1.84652" r="0.217982"/>
  <circle class="fil7" cx="3.92439" cy="1.58607" r="0.118826"/>
 </g>
</svg>
