<svg xmlns="http://www.w3.org/2000/svg" viewBox="0 0 48 48"><defs><style>.cls-1{fill:#7c7d7d;}.cls-2{fill:#919191;}.cls-3{fill:#dad7e5;}.cls-4{fill:#edebf2;}.cls-5{fill:#374f68;}.cls-6{fill:#425b72;}.cls-7{fill:#9fdbf3;}.cls-8{fill:#b2e5fb;}</style></defs><title>Mover Truck</title><g id="Mover_Truck" data-name="Mover Truck"><path class="cls-1" d="M31,28v4H2a1,1,0,0,1-1-1V28Z"/><path class="cls-2" d="M31,28v2H4a1,1,0,0,1-1-1V28Z"/><path class="cls-3" d="M31,12V28H1V13a1,1,0,0,1,1-1Z"/><path class="cls-4" d="M31,12V26H6a3,3,0,0,1-3-3V12Z"/><path class="cls-5" d="M15,32a4,4,0,1,1-5.64-3.64A4,4,0,0,1,15,32Z"/><path class="cls-6" d="M14.64,33.64a4,4,0,0,1-5.28-5.28A4,4,0,0,1,14.64,33.64Z"/><path class="cls-3" d="M47,26.62V31a1,1,0,0,1-1,1H31V16h7.61a2,2,0,0,1,1.88,1.3L43,24C46.58,25.78,47,25.79,47,26.62Z"/><path class="cls-4" d="M47,26.62V30H36a3,3,0,0,1-3-3V16h5.61a2,2,0,0,1,1.88,1.3L43,24C46.55,25.77,47,25.79,47,26.62Z"/><path class="cls-4" d="M11,33a1,1,0,1,1,1-1A1,1,0,0,1,11,33Z"/><path class="cls-3" d="M39,16H31V12h4A4,4,0,0,1,39,16Z"/><path class="cls-4" d="M38.46,14H35a2,2,0,0,1-2-2C34.91,12,37.13,11.69,38.46,14Z"/><path class="cls-7" d="M43,24H37a1,1,0,0,1-1-1V21a1,1,0,0,1,1-1h4.5Z"/><path class="cls-8" d="M42.25,22H39a1,1,0,0,1-1-1V20h3.5Z"/><circle class="cls-5" cx="39" cy="32" r="4"/><path class="cls-6" d="M42.64,33.64a4,4,0,0,1-5.28-5.28A4,4,0,0,1,42.64,33.64Z"/><path class="cls-4" d="M38.26,31.29a1,1,0,0,1,1.42,1.42A1,1,0,0,1,38.26,31.29Z"/></g></svg>